<?xml version="1.0" encoding="utf-8"?>
<!-- Generator: Adobe Illustrator 24.3.0, SVG Export Plug-In . SVG Version: 6.00 Build 0)  -->
<svg version="1.1" id="Layer_1" xmlns="http://www.w3.org/2000/svg" xmlns:xlink="http://www.w3.org/1999/xlink" x="0px" y="0px"
	 viewBox="0 0 595.28 841.89" style="enable-background:new 0 0 595.28 841.89;" xml:space="preserve">
<style type="text/css">
	.st0{fill:#B41E17;}
	.st1{fill:#E0BD0E;}
	.st2{fill:#878787;}
	.st3{fill:none;stroke:#000000;stroke-width:0.5;stroke-miterlimit:10;}
	.st4{fill:none;stroke:#575756;stroke-width:2;stroke-miterlimit:10;}
	.st5{fill:#DFBF0A;}
	.st6{fill:#DFBC0C;}
	.st7{fill:#7E7E7F;}
	.st8{fill:#010202;}
	.st9{fill:#1E201F;}
	.st10{fill:none;stroke:#FFFFFF;stroke-miterlimit:10;}
</style>
<g>
	<g>
		<path class="st0" d="M98.56,584.02h5.89l12.53,47.93l10.8-47.93h8.91l-14.92,61.13h-8.75l-11.27-42.72l-11.77,42.72h-8.75
			l-14.93-61.13h8.91l10.81,47.93L98.56,584.02z"/>
		<path class="st0" d="M148.42,643.51c-2.86-1.51-5.04-3.74-6.54-6.67c-1.5-2.93-2.25-6.47-2.25-10.61v-4.92
			c0-4.32,0.72-8,2.17-11.06c1.44-3.06,3.54-5.38,6.29-6.98c2.74-1.6,6.05-2.4,9.92-2.4c3.64,0,6.75,0.91,9.33,2.73
			c2.57,1.82,4.55,4.46,5.91,7.9c1.36,3.45,2.04,7.58,2.04,12.4v2.86h-29.43v-6.9h21.27c-0.25-3.56-1.17-6.33-2.76-8.3
			c-1.58-1.98-3.71-2.97-6.36-2.97c-3.25,0-5.77,1.06-7.55,3.2c-1.78,2.13-2.67,5.14-2.67,9.04v5.55c0,3.62,0.96,6.39,2.86,8.32
			c1.91,1.93,4.61,2.9,8.12,2.9c1.73,0,3.46-0.35,5.17-1.05c1.71-0.7,3.24-1.68,4.59-2.94l5.63,5.63c-2.16,2.07-4.59,3.68-7.28,4.81
			c-2.69,1.14-5.39,1.7-8.11,1.7C154.73,645.78,151.28,645.02,148.42,643.51z"/>
		<path class="st0" d="M187.06,584.02h8.58v61.13h-8.58V584.02z M199.5,643.82c-2.02-1.3-3.5-3.14-4.46-5.53l0.59-9.12
			c0,1.88,0.34,3.48,1.01,4.79s1.65,2.33,2.92,3.03c1.27,0.7,2.83,1.05,4.64,1.05c2.83,0,5.03-0.86,6.58-2.58
			c1.56-1.73,2.34-4.16,2.34-7.3v-9.46c0-3.2-0.78-5.68-2.34-7.44c-1.55-1.77-3.75-2.65-6.58-2.65c-1.82,0-3.37,0.34-4.64,1.01
			c-1.27,0.67-2.25,1.66-2.92,2.97c-0.67,1.3-1.01,2.87-1.01,4.69l-0.88-8.41c1.31-2.55,3.04-4.52,5.17-5.91
			c2.13-1.38,4.5-2.08,7.11-2.08c3.08,0,5.72,0.7,7.92,2.08c2.2,1.39,3.87,3.42,5.03,6.08c1.14,2.66,1.72,5.87,1.72,9.63v9.5
			c0,3.7-0.59,6.87-1.77,9.5c-1.18,2.64-2.9,4.64-5.17,6.03c-2.27,1.38-4.99,2.08-8.16,2.08
			C203.89,645.78,201.52,645.13,199.5,643.82z"/>
		<path class="st1" d="M243.58,642.96c-3.21-1.88-5.69-4.54-7.46-7.99c-1.77-3.45-2.65-7.44-2.65-11.98v-16.78
			c0-4.54,0.89-8.53,2.65-11.98c1.77-3.45,4.25-6.12,7.46-8.01c3.21-1.89,6.93-2.84,11.16-2.84c3.51,0,6.73,0.75,9.67,2.25
			c2.94,1.5,5.4,3.63,7.38,6.37c1.97,2.75,3.31,5.93,4.02,9.54h-8.79c-0.53-1.9-1.42-3.61-2.67-5.11c-1.24-1.5-2.71-2.66-4.39-3.47
			c-1.68-0.81-3.42-1.22-5.21-1.22c-2.49,0-4.68,0.6-6.56,1.81c-1.88,1.21-3.33,2.89-4.37,5.07c-1.03,2.17-1.55,4.7-1.55,7.59v16.78
			c0,2.86,0.52,5.38,1.55,7.57c1.04,2.19,2.5,3.87,4.37,5.07c1.88,1.19,4.07,1.79,6.56,1.79c1.82,0,3.57-0.38,5.23-1.14
			c1.67-0.76,3.13-1.88,4.37-3.36c1.25-1.48,2.14-3.25,2.67-5.3h8.79c-0.71,3.62-2.05,6.8-4.04,9.54c-1.99,2.75-4.46,4.87-7.4,6.37
			c-2.94,1.5-6.15,2.25-9.63,2.25C250.52,645.78,246.8,644.84,243.58,642.96z"/>
		<path class="st1" d="M287.16,601.51h8.58v43.64h-8.58V601.51z M308.31,609.75c-1.14-0.48-2.48-0.71-3.99-0.71
			c-2.72,0-4.83,0.75-6.33,2.25c-1.5,1.5-2.25,3.58-2.25,6.25l-0.89-8.41c1.35-2.61,3.09-4.63,5.21-6.08
			c2.13-1.44,4.49-2.16,7.06-2.16c1.99,0,3.79,0.29,5.41,0.86c1.61,0.57,3.01,1.42,4.22,2.54l-5.6,7.57
			C310.41,610.92,309.46,610.22,308.31,609.75z"/>
		<path class="st1" d="M325.8,642.44c-2.66-2.23-3.99-5.61-3.99-10.16c0-4.32,1.22-7.55,3.65-9.71s6.13-3.24,11.06-3.24h12.4
			l0.59,6.9h-12.95c-2.24,0-3.91,0.5-5.02,1.49c-1.11,0.99-1.66,2.51-1.66,4.56c0,2.22,0.74,3.86,2.21,4.92
			c1.47,1.06,3.71,1.6,6.71,1.6c3.28,0,5.72-0.35,7.33-1.05c1.61-0.7,2.42-1.79,2.42-3.28l0.88,6.14c-0.76,1.18-1.69,2.14-2.79,2.9
			s-2.39,1.32-3.85,1.7c-1.46,0.38-3.1,0.57-4.92,0.57C332.49,645.78,328.46,644.66,325.8,642.44z M348.55,617.48
			c0-2.86-0.76-5.08-2.29-6.66c-1.53-1.58-3.69-2.38-6.5-2.38c-1.73,0-3.44,0.27-5.1,0.8c-1.67,0.53-3.15,1.27-4.44,2.23l-6.27-4.29
			c1.66-1.99,3.84-3.54,6.54-4.65c2.7-1.11,5.71-1.66,9.02-1.66c3.62,0,6.71,0.64,9.29,1.91c2.57,1.28,4.54,3.13,5.89,5.55
			c1.35,2.43,2.02,5.35,2.02,8.77v28.04h-8.16V617.48z"/>
		<path class="st1" d="M366.38,601.51h21.82v7.32h-21.82V601.51z M371,595.58c0-3.87,0.89-6.76,2.67-8.68
			c1.78-1.92,4.51-2.88,8.21-2.88h6.31v8.16h-6.14c-0.81,0-1.43,0.31-1.85,0.92s-0.63,1.42-0.63,2.4v49.65H371V595.58z"/>
		<path class="st1" d="M393.66,601.51h19.68v7.74h-19.68V601.51z M400.62,642.44c-1.64-1.95-2.46-4.83-2.46-8.64v-44.99h8.58v45.07
			c0,1.06,0.21,1.89,0.63,2.46c0.42,0.58,1.04,0.86,1.85,0.86h4.12v8.16h-4.96C404.84,645.36,402.25,644.38,400.62,642.44z"/>
		<path class="st1" d="M432.64,643.51c-2.86-1.51-5.04-3.74-6.54-6.67c-1.5-2.93-2.25-6.47-2.25-10.61v-4.92
			c0-4.32,0.72-8,2.17-11.06c1.44-3.06,3.54-5.38,6.29-6.98c2.74-1.6,6.05-2.4,9.92-2.4c3.64,0,6.75,0.91,9.33,2.73
			c2.57,1.82,4.55,4.46,5.91,7.9c1.36,3.45,2.04,7.58,2.04,12.4v2.86h-29.43v-6.9h21.27c-0.25-3.56-1.17-6.33-2.76-8.3
			c-1.58-1.98-3.71-2.97-6.36-2.97c-3.25,0-5.77,1.06-7.55,3.2s-2.67,5.14-2.67,9.04v5.55c0,3.62,0.96,6.39,2.86,8.32
			c1.91,1.93,4.61,2.9,8.12,2.9c1.73,0,3.46-0.35,5.17-1.05c1.71-0.7,3.24-1.68,4.59-2.94l5.63,5.63c-2.16,2.07-4.59,3.68-7.28,4.81
			c-2.69,1.14-5.39,1.7-8.11,1.7C438.94,645.78,435.49,645.02,432.64,643.51z"/>
		<path class="st1" d="M471.27,601.51h8.58v43.64h-8.58V601.51z M492.42,609.75c-1.15-0.48-2.48-0.71-4-0.71
			c-2.72,0-4.83,0.75-6.33,2.25c-1.5,1.5-2.25,3.58-2.25,6.25l-0.88-8.41c1.35-2.61,3.08-4.63,5.21-6.08
			c2.13-1.44,4.48-2.16,7.06-2.16c1.99,0,3.79,0.29,5.4,0.86c1.61,0.57,3.02,1.42,4.22,2.54l-5.59,7.57
			C494.52,610.92,493.57,610.22,492.42,609.75z"/>
		<path class="st1" d="M516.19,645.02c-2.25-0.5-4.36-1.26-6.33-2.27c-1.96-1.01-3.77-2.27-5.42-3.78l5.08-6.26
			c2.35,1.79,4.7,3.14,7.02,4.04c2.32,0.9,4.62,1.35,6.9,1.35c3.39,0,5.93-0.52,7.63-1.58c1.7-1.05,2.55-2.63,2.55-4.73
			c0-1.4-0.47-2.45-1.39-3.15c-0.92-0.7-2.07-1.17-3.45-1.41c-1.37-0.24-3.31-0.46-5.8-0.65c-0.22,0-0.46-0.01-0.71-0.02
			c-0.25-0.02-0.49-0.04-0.72-0.06c-0.11,0-0.22-0.01-0.34-0.02c-0.11-0.02-0.22-0.02-0.34-0.02c-2.83-0.22-5.23-0.64-7.19-1.24
			c-1.97-0.6-3.6-1.73-4.9-3.39c-1.3-1.65-1.95-4.02-1.95-7.11c0-3.08,0.63-5.65,1.9-7.69c1.26-2.05,3.14-3.58,5.63-4.6
			c2.49-1.03,5.62-1.54,9.37-1.54c2.27,0,4.44,0.21,6.49,0.63c2.06,0.42,4.03,1.04,5.91,1.87c1.88,0.83,3.69,1.87,5.42,3.13
			l-5.17,6.26c-2.19-1.4-4.34-2.45-6.46-3.15c-2.12-0.7-4.18-1.05-6.2-1.05c-2.91,0-5.1,0.5-6.56,1.49
			c-1.46,0.99-2.19,2.49-2.19,4.48c0,1.18,0.41,2.06,1.24,2.65c0.83,0.59,1.87,0.98,3.13,1.18c1.26,0.2,3.06,0.37,5.38,0.5
			c0.17,0.03,0.34,0.04,0.52,0.04c0.19,0,0.38,0.01,0.57,0.04c0.08,0,0.17,0,0.25,0c0.08,0,0.17,0.01,0.25,0.04
			c3.06,0.2,5.65,0.6,7.8,1.22c2.14,0.62,3.95,1.84,5.4,3.66c1.46,1.82,2.19,4.46,2.19,7.9c0,3.14-0.67,5.74-2.02,7.8
			c-1.35,2.06-3.37,3.61-6.07,4.64c-2.7,1.04-6.11,1.56-10.19,1.56C520.87,645.78,518.45,645.53,516.19,645.02z"/>
	</g>
	<g>
		<path class="st2" d="M303.52,539.69c-0.54,0-1.09-0.12-1.59-0.36c-1.28-0.61-2.09-1.9-2.09-3.32V116.17
			c0-1.43,0.82-2.72,2.11-3.33c1.29-0.6,2.81-0.42,3.91,0.49c77.46,63.97,116.48,133.88,115.95,207.8
			c-0.88,123.99-114.84,216.83-115.99,217.75C305.15,539.41,304.34,539.69,303.52,539.69z M307.2,124.06v403.9
			c23.29-20.89,106.54-102.81,107.25-206.93C414.93,251.38,378.85,185.15,307.2,124.06z"/>
		<path class="st2" d="M303.52,539.69c-117.78,0-213.6-95.82-213.6-213.6s95.82-213.6,213.6-213.6s213.6,95.82,213.6,213.6
			S421.3,539.69,303.52,539.69z M303.52,119.85c-113.72,0-206.24,92.52-206.24,206.24c0,113.72,92.52,206.24,206.24,206.24
			s206.24-92.52,206.24-206.24C509.75,212.37,417.24,119.85,303.52,119.85z"/>
		<path class="st2" d="M303.52,539.69c-0.82,0-1.64-0.28-2.3-0.81c-1.15-0.92-115.11-93.77-115.99-217.75
			c-0.52-73.92,38.49-143.83,115.95-207.8c1.1-0.91,2.62-1.1,3.91-0.49c1.29,0.61,2.11,1.91,2.11,3.33v419.84
			c0,1.42-0.81,2.71-2.09,3.32C304.6,539.57,304.06,539.69,303.52,539.69z M299.84,124.06c-71.65,61.08-107.73,127.32-107.25,196.97
			c0.72,104.12,83.96,186.04,107.25,206.93V124.06z"/>
		<path class="st2" d="M513.44,329.77H93.6c-2.03,0-3.68-1.65-3.68-3.68s1.65-3.68,3.68-3.68h419.84c2.03,0,3.68,1.65,3.68,3.68
			S515.47,329.77,513.44,329.77z"/>
		<path class="st2" d="M482.89,221.77H124.15c-2.03,0-3.68-1.65-3.68-3.68s1.65-3.68,3.68-3.68h358.74c2.03,0,3.68,1.65,3.68,3.68
			S484.92,221.77,482.89,221.77z"/>
		<path class="st2" d="M482.89,437.78H124.15c-2.03,0-3.68-1.65-3.68-3.68s1.65-3.68,3.68-3.68h358.74c2.03,0,3.68,1.65,3.68,3.68
			S484.92,437.78,482.89,437.78z"/>
	</g>
	<g>
		<path class="st3" d="M415.5,251.5"/>
		<path class="st3" d="M409.94,187.47"/>
		<path class="st3" d="M442.43,224.64"/>
		<path d="M182.98,472.11l262.68-253.69l-26.99-30.85L154.23,440.57"/>
		<path class="st0" d="M473.23,269.65l-25.42,22.57l-37.68-40.75l-26.39-28.63l-20.26-21.94l-23.75-53.37
			c-1.94-5.22,3.86-9.91,8.44-6.83l47.76,32.13l11.52,14.43l30.79,38.59L473.23,269.65z"/>
	</g>
	<path class="st4" d="M303.52,536.01"/>
	<g>
		<path class="st0" d="M530.51,326.09c0,125.18-101.85,226.96-226.96,226.96v-13.89c117.47,0,213.07-95.6,213.07-213.07
			c0-117.54-95.6-213.07-213.07-213.07V99.13C428.66,99.13,530.51,200.91,530.51,326.09z"/>
		<path class="st5" d="M90.41,326.09c0,117.47,95.6,213.07,213.14,213.07v13.89c-125.18,0-227.03-101.78-227.03-226.96
			c0-125.18,101.85-226.96,227.03-226.96v13.89C186.01,113.02,90.41,208.55,90.41,326.09z"/>
	</g>
	<g>
		<path class="st0" d="M217.4,187.42l-8.23,6.47l-9.46,7.42l-8.05,6.29l-14.09-18.18c-2.45-3.16-1.78-7.65,1.5-10.02l2.36-1.7
			l9.65-7.07l2.55-1.86c3.27-2.38,7.92-1.75,10.38,1.42L217.4,187.42z"/>
		<polygon class="st5" points="412.49,438.33 400.54,440.82 314.49,329.74 300.48,311.76 216.17,202.88 224.21,196.18 
			308.09,304.11 333.88,337.28 		"/>
		<polygon class="st6" points="391.39,448.48 387.06,459.64 311.18,361.73 284.65,327.49 199.09,217.18 206.96,210.6 		"/>
		<path class="st3" d="M224.21,196.21"/>
		<path class="st7" d="M421.66,462.88c-4.68,1.57-8.49,4.8-10.81,8.98l-23.79-12.22l4.33-11.15l2.44-6.38l6.71-1.28l11.95-2.49
			L421.66,462.88z"/>
		<polygon class="st7" points="224.21,196.18 216.17,202.88 206.96,210.6 199.09,217.18 191.65,207.63 199.7,201.28 209.16,193.86 
			217.4,187.45 		"/>
		<polygon class="st8" points="400.54,440.82 393.83,442.1 391.39,448.48 206.96,210.6 216.17,202.88 300.48,311.76 314.49,329.74 
					"/>
		<line class="st9" x1="314.49" y1="329.74" x2="216.17" y2="202.88"/>
		<g>
			<path d="M411.02,471.8c2.33-4.13,6.07-7.23,10.56-8.77l6.52,17.54L411.02,471.8z"/>
			<path d="M421.51,463.19l6.37,17.12l-16.68-8.56C413.49,467.75,417.14,464.72,421.51,463.19 M421.66,462.88
				c-4.68,1.57-8.49,4.8-10.81,8.98l17.48,8.97L421.66,462.88L421.66,462.88z"/>
		</g>
	</g>
	<path class="st10" d="M303.55,553.05"/>
</g>
</svg>
